Coordinates
version=1
nRows=14
nColumns=40
inDegrees=yes

Units are S.I. units (second, meters, Newtons, ...)
Angles are in degrees.

endheader
time	pelvis_tilt	pelvis_list	pelvis_rotation	pelvis_tx	pelvis_ty	pelvis_tz	hip_flexion_r	hip_adduction_r	hip_rotation_r	knee_angle_r	knee_angle_r_beta	ankle_angle_r	subtalar_angle_r	mtp_angle_r	hip_flexion_l	hip_adduction_l	hip_rotation_l	knee_angle_l	knee_angle_l_beta	ankle_angle_l	subtalar_angle_l	mtp_angle_l	lumbar_extension	lumbar_bending	lumbar_rotation	arm_flex_r	arm_add_r	arm_rot_r	elbow_flex_r	pro_sup_r	wrist_flex_r	wrist_dev_r	arm_flex_l	arm_add_l	arm_rot_l	elbow_flex_l	pro_sup_l	wrist_flex_l	wrist_dev_l
     58.16828571	     -6.50417152	     -3.88515329	    -10.66732870	      0.89923748	      0.92722851	      0.45974149	     26.96940444	      0.89970049	     -7.17055562	     17.97796695	     17.97796695	      5.17782403	      6.30177511	      2.34432204	     10.36033957	     -5.01826263	    -11.65014079	     19.95900897	     19.95900897	     16.73341533	    -14.20638558	      0.87374790	    -10.01441112	      5.68476022	      2.04242046	    -17.28277355	    -11.08649150	    -13.84531439	     26.86503246	     46.54664904	      0.00000000	      0.00000000	     37.12301072	    -22.66472361	    -10.37583240	     65.01479303	     47.96026393	      0.00000000	      0.00000000
     58.18657143	     -6.47102069	     -3.66933866	    -10.76396939	      0.90023906	      0.92658924	      0.46242512	     26.29251407	      0.97913681	     -7.71072357	     15.83982948	     15.83982948	      4.68542143	      8.09654364	      3.46770152	      9.56824636	     -4.84393074	    -11.92516482	     19.40892250	     19.40892250	     16.81393642	    -13.98237889	      0.35841060	     -9.90703384	      5.55329487	      2.16025548	    -17.56543506	    -10.89353348	    -13.61734201	     26.85033334	     46.52246960	      0.00000000	      0.00000000	     38.00203059	    -22.88244213	    -10.69542444	     66.09809431	     48.00036391	      0.00000000	      0.00000000
     58.20485714	     -6.65326144	     -3.35149971	    -10.80940369	      0.90132584	      0.92527049	      0.46517110	     26.22936634	      0.95599844	     -7.79084589	     14.85021613	     14.85021613	      4.22224667	      8.66720038	      3.82858757	      9.19762441	     -4.61606604	    -12.00471921	     19.18813415	     19.18813415	     17.10194569	    -13.89018977	      0.15998606	     -9.49455408	      5.36556079	      2.13995997	    -17.68850086	    -10.73806329	    -13.56944204	     26.80228124	     46.51858792	      0.00000000	      0.00000000	     38.91782325	    -23.22311100	    -10.88109768	     66.65878891	     48.02877455	      0.00000000	      0.00000000
     58.22314286	     -6.50405211	     -3.26667030	    -10.84583739	      0.90319776	      0.92460749	      0.46806609	     25.55321545	      1.00841789	     -8.43155680	     13.98700326	     13.98700326	      3.57007576	      9.82101288	      3.21129615	      8.20416831	     -4.55961751	    -12.21684569	     18.63105955	     18.63105955	     17.16479154	    -13.62603804	     -0.67323417	     -9.48389821	      5.41915314	      2.20602291	    -17.56183615	    -10.74869444	    -13.30650058	     26.49744456	     46.50835915	      0.00000000	      0.00000000	     39.05243460	    -23.14670040	    -11.71404230	     68.43313226	     48.10315646	      0.00000000	      0.00000000
     58.24142857	     -6.44651003	     -3.11494443	    -10.84318621	      0.90519621	      0.92364050	      0.47110362	     25.20126918	      1.05929600	     -8.35821528	     13.82394889	     13.82394889	      2.60294619	      9.38674788	      0.79086403	      7.42146280	     -4.45274026	    -12.27176765	     18.27721247	     18.27721247	     17.40110091	    -13.51646662	     -0.97495180	     -9.30925655	      5.42290430	      2.04843796	    -17.11192587	    -10.85510172	    -12.98928145	     25.88221238	     46.51118918	      0.00000000	      0.00000000	     39.24308846	    -23.32031432	    -12.51152227	     69.59934815	     48.15414152	      0.00000000	      0.00000000
     58.25971429	     -6.35537577	     -3.01414963	    -10.83084344	      0.90741166	      0.92278445	      0.47428110	     25.04890480	      1.07754464	     -8.29901910	     14.49087569	     14.49087569	      2.64127014	      8.84965313	      0.26807190	      6.59453350	     -4.40172641	    -12.30307982	     17.96009307	     17.96009307	     17.74321548	    -13.36198364	     -0.97144787	     -9.16975108	      5.50586500	      2.22634122	    -16.95482310	    -10.98455153	    -12.97360734	     25.81559579	     46.51469774	      0.00000000	      0.00000000	     39.69503169	    -23.31701101	    -12.64592810	     70.04065968	     48.17114455	      0.00000000	      0.00000000
     58.27800000	     -6.25315993	     -2.91370424	    -10.79930129	      0.90985696	      0.92200612	      0.47759638	     24.98316102	      1.09927513	     -7.95967410	     15.55066092	     15.55066092	      2.79831359	      7.85076636	     -0.66245920	      5.71415483	     -4.35412400	    -12.34953250	     17.59321349	     17.59321349	     18.07448017	    -13.12094578	     -0.87476993	     -9.03909082	      5.58434573	      2.39597118	    -16.72623489	    -11.19619802	    -12.98619244	     25.71332189	     46.52324875	      0.00000000	      0.00000000	     39.97322681	    -23.25479447	    -12.89454045	     70.55593825	     48.19560170	      0.00000000	      0.00000000
     58.29628571	     -6.19852410	     -2.84213305	    -10.74388407	      0.91239477	      0.92126515	      0.48116068	     24.90929571	      1.28218910	     -7.10065860	     16.56466149	     16.56466149	      2.46635284	      5.70328443	     -2.99347215	      4.90688219	     -4.37729490	    -12.43877374	     17.29749933	     17.29749933	     18.57175249	    -12.74347029	     -0.37382846	     -8.87597909	      5.69661297	      2.32330839	    -16.22750614	    -11.50480706	    -13.08571353	     25.32814865	     46.55482960	      0.00000000	      0.00000000	     39.77771533	    -23.17108122	    -13.73175704	     71.59991054	     48.25718414	      0.00000000	      0.00000000
     58.31457143	     -6.03120307	     -2.78634552	    -10.62244031	      0.91505139	      0.92083440	      0.48470471	     24.72229922	      1.37622161	     -6.50367315	     17.69362280	     17.69362280	      2.41686862	      4.11011966	     -5.10132117	      4.00993867	     -4.42439519	    -12.55562867	     17.08500913	     17.08500913	     19.16760947	    -12.18587489	      0.42237778	     -8.84373167	      5.81607852	      2.02736705	    -15.50992569	    -11.88260173	    -13.30349788	     24.87680555	     46.60137840	      0.00000000	      0.00000000	     39.46455912	    -23.32007594	    -14.52931436	     72.47616625	     48.30126396	      0.00000000	      0.00000000
     58.33285714	     -6.00746868	     -2.88713323	    -10.39577598	      0.91771122	      0.92052689	      0.48827933	     24.42614526	      1.56451571	     -6.47631688	     18.48865900	     18.48865900	      3.07451106	      3.64656923	     -5.45991828	      3.32195777	     -4.67550672	    -12.45104837	     16.94717969	     16.94717969	     19.31511080	    -12.07413358	      0.47708005	     -8.62612532	      6.10222245	      2.03081168	    -15.22823204	    -12.31900567	    -13.35644838	     24.95574390	     46.60654966	      0.00000000	      0.00000000	     39.42753504	    -23.12926458	    -14.48397518	     72.51595982	     48.29742599	      0.00000000	      0.00000000
     58.35114286	     -5.77545600	     -2.69338601	    -10.24185477	      0.92020057	      0.92050665	      0.49203612	     24.46366984	      1.60239179	     -5.38464046	     20.15020220	     20.15020220	      3.85178242	      1.36697501	     -5.47073404	      2.42892415	     -4.62499112	    -12.72440338	     16.77889749	     16.77889749	     19.71248266	    -11.27532617	      1.23875253	     -8.73188387	      6.02300035	      1.90432372	    -14.76815673	    -12.69377800	    -13.62534600	     24.96761776	     46.63284917	      0.00000000	      0.00000000	     39.14516008	    -23.18197609	    -14.97335962	     72.96035763	     48.32368620	      0.00000000	      0.00000000
     58.36942857	     -5.65873966	     -2.69714034	     -9.90262181	      0.92261292	      0.92073582	      0.49558070	     24.10591011	      1.66194914	     -5.36603628	     20.91575503	     20.91575503	      4.56550850	      0.86768910	     -5.72461566	      1.83690672	     -4.82771888	    -12.61684015	     16.88633403	     16.88633403	     19.70707140	    -11.07036130	      1.36861191	     -8.70045177	      6.18177617	      1.83185440	    -14.46717425	    -13.14641352	    -13.70779751	     25.06338661	     46.63969987	      0.00000000	      0.00000000	     38.93668310	    -22.94225646	    -14.93372351	     72.92781401	     48.31697165	      0.00000000	      0.00000000
     58.38771429	     -5.54228599	     -2.60246056	     -9.57271169	      0.92475947	      0.92111705	      0.49923259	     23.80985613	      1.68631945	     -5.10369429	     21.71528466	     21.71528466	      5.36677455	      0.04764187	     -5.72805608	      1.45275162	     -5.01361616	    -12.63758492	     17.33319784	     17.33319784	     19.74822969	    -10.67573302	      1.59870004	     -8.69019115	      6.15062181	      1.64536054	    -14.10768919	    -13.52143834	    -13.85405012	     25.21047017	     46.64913360	      0.00000000	      0.00000000	     38.70096276	    -22.84772017	    -15.01174018	     72.87302788	     48.31594252	      0.00000000	      0.00000000
     58.40600000	     -5.51855992	     -2.60576365	     -9.09836146	      0.92662428	      0.92175286	      0.50269371	     23.32644393	      1.77945792	     -5.12479855	     21.95914676	     21.95914676	      6.06699223	     -0.43198613	     -5.45960086	      1.50039087	     -5.42611528	    -12.55435428	     18.34411864	     18.34411864	     19.76623047	    -10.30898258	      1.79113469	     -8.63481726	      6.28236374	      1.39653082	    -13.72431435	    -13.90801679	    -14.04086569	     25.36599394	     46.66104125	      0.00000000	      0.00000000	     38.29640340	    -22.57713265	    -15.01627760	     72.73345551	     48.30606754	      0.00000000	      0.00000000
